<?xml version="1.0" standalone="no"?><!DOCTYPE svg PUBLIC "-//W3C//DTD SVG 1.1//EN" "http://www.w3.org/Graphics/SVG/1.1/DTD/svg11.dtd"><svg t="1624182032594" class="icon" viewBox="0 0 1024 1024" version="1.1" xmlns="http://www.w3.org/2000/svg" p-id="2471" xmlns:xlink="http://www.w3.org/1999/xlink" width="81" height="81"><defs><style type="text/css"></style></defs><path d="M256 844.8c0 56.32 46.08 102.4 102.4 102.4s102.4-46.08 102.4-102.4-46.08-102.4-102.4-102.4-102.4 46.08-102.4 102.4z m102.4-51.2c28.16 0 51.2 23.04 51.2 51.2s-23.04 51.2-51.2 51.2-51.2-23.04-51.2-51.2 23.04-51.2 51.2-51.2z m204.8 51.2c0 56.32 46.08 102.4 102.4 102.4s102.4-46.08 102.4-102.4-46.08-102.4-102.4-102.4-102.4 46.08-102.4 102.4z m102.4-51.2c28.16 0 51.2 23.04 51.2 51.2s-23.04 51.2-51.2 51.2-51.2-23.04-51.2-51.2 23.04-51.2 51.2-51.2z m-358.4-102.4c-28.16 0-51.2-23.04-51.2-51.2l588.8-51.2s76.8-309.76 76.8-332.8c0-15.36-10.24-25.6-25.6-25.6H256V179.2h25.6c15.36 0 25.6-10.24 25.6-25.6s-10.24-25.6-25.6-25.6H128c-15.36 0-25.6 10.24-25.6 25.6s10.24 25.6 25.6 25.6h76.8v460.8c0 56.32 46.08 102.4 102.4 102.4h588.8v-51.2H307.2z m-51.2-409.6h614.4l-66.56 261.12L256 588.8V281.6z" p-id="2472" fill="#000000"></path></svg>